<svg viewBox="0 0 200 200" xmlns="http://www.w3.org/2000/svg" role="img" aria-label="FC Energie Cottbus">
  <defs>
    <filter id="shadow" x="-20%" y="-20%" width="140%" height="140%">
      <feDropShadow dx="0" dy="3" stdDeviation="3" flood-opacity=".25"/>
    </filter>
  </defs>
  <g filter="url(#shadow)">
    <path d="M100 10 L168 36 L168 110 Q168 152 100 188 Q32 152 32 110 L32 36 Z" fill="#d7261e" stroke="#ffffff" stroke-width="4" />
    <g opacity=".12"><path d="M100 28 L154 48 L154 108 Q154 140 100 170 Q46 140 46 108 L46 48 Z" fill="#ffffff" /></g>
    <path d="M100 28 L154 48 L154 108 Q154 140 100 170 Q46 140 46 108 L46 48 Z" fill="none" opacity=".9" stroke="#ffffff" stroke-width="7" />
  </g>
  <text x="100" y="28" text-anchor="middle" font-family="Arial, Helvetica, sans-serif" font-size="10" font-weight="700" fill="#ffffff" letter-spacing=".7">FC ENERGIE</text>
  <text x="100" y="42" text-anchor="middle" font-family="Arial, Helvetica, sans-serif" font-size="9" font-weight="700" fill="#ffffff" letter-spacing=".6">COTTBUS</text>
  <path d="M88 70 Q102 90 90 112 Q110 110 122 130" stroke="#ffffff" stroke-width="8" fill="none" stroke-linecap="round"/>
  <text x="100" y="152" text-anchor="middle" font-family="Arial, Helvetica, sans-serif" font-size="30" font-weight="800" fill="#ffffff" letter-spacing="1.5">FCE</text>
</svg>