<svg xmlns="http://www.w3.org/2000/svg" width="512" height="512" viewBox="0 0 512 512" role="img" aria-label="badge">
    
    <defs>
      <linearGradient id="shine" x1="0" y1="0" x2="1" y2="1">
        <stop offset="0%" stop-color="#ffffff" stop-opacity=".32"/>
        <stop offset="100%" stop-color="#ffffff" stop-opacity="0"/>
      </linearGradient>
      <filter id="shadow" x="-20%" y="-20%" width="140%" height="140%">
        <feDropShadow dx="0" dy="10" stdDeviation="10" flood-color="#000000" flood-opacity=".20"/>
      </filter>
    </defs>
    <style>
      text { font-family: "Arial", "Helvetica Neue", Helvetica, sans-serif; }
      .name { font-weight: 700; letter-spacing: 1px; }
      .mono { font-weight: 800; }
      .small { font-weight: 700; letter-spacing: 1.6px; }
    </style>
    
    <rect width="512" height="512" rx="36" fill="#f5f7fb"/>
    <rect x="24" y="24" width="464" height="464" rx="30" fill="#ffffff"/>
    
        <g filter="url(#shadow)">
        <circle cx="256" cy="210" r="130" fill="#d71920" stroke="#0057b8" stroke-width="10"/>
        <path d="M256 80 A130 130 0 0 1 386 210 A130 130 0 0 1 256 340 Z" fill="#0057b8"/>
        <text x="228" y="223" text-anchor="middle" font-size="62" class="mono" fill="#ffffff">1</text>
        <text x="286" y="223" text-anchor="middle" font-size="62" class="mono" fill="#ffffff">46</text>
        </g>
        <path d="M146 120 C200 86 300 70 366 116 C336 110 300 114 266 126 C228 140 194 162 166 194 C148 164 140 142 146 120 Z" fill="url(#shine)" opacity=".65"/><text x="256" y="392" text-anchor="middle" class="name" font-size="24" fill="#222222">1. FC Heidenheim</text>
<text x="256" y="420" text-anchor="middle" class="name" font-size="24" fill="#222222">1846</text>
    </svg>