<svg xmlns="http://www.w3.org/2000/svg" viewBox="0 0 400 400" role="img" aria-label="FC Málaga">
  <defs>
    <path id="topArc" d="M 78 150 A 122 122 0 0 1 322 150" />
    <filter id="shadow" x="-20%" y="-20%" width="140%" height="140%">
      <feDropShadow dx="0" dy="2" stdDeviation="2" flood-color="#000000" flood-opacity="0.15"/>
    </filter>
  </defs>
  <g filter="url(#shadow)">
    <path d="M200 36 C280 36 340 76 340 162 C340 270 286 336 200 372 C114 336 60 270 60 162 C60 76 120 36 200 36 Z" fill="#58a9de" stroke="#1b2a5b" stroke-width="10" />
<path d="M200 72 C260 72 304 100 304 164 C304 246 264 298 200 328 C136 298 96 246 96 164 C96 100 140 72 200 72 Z" fill="none" stroke="#ffffff" stroke-width="6" />
  </g>
  <text font-family="Arial, Helvetica, sans-serif" font-weight="700" font-size="18" fill="#ffffff" letter-spacing="1.2">
    <textPath href="#topArc" startOffset="50%" text-anchor="middle">FC MÁLAGA</textPath>
  </text>
  <text x="200" y="222" text-anchor="middle" font-family="Arial, Helvetica, sans-serif" font-weight="800" font-size="72" fill="#ffffff">FC</text>
  <text x="200" y="280" text-anchor="middle" font-family="Arial, Helvetica, sans-serif" font-weight="700" font-size="18" fill="#ffffff">Málaga</text>
</svg>
