<svg xmlns="http://www.w3.org/2000/svg" viewBox="0 0 400 400" role="img" aria-label="Norway">
  <defs>
    <path id="topArc" d="M 78 150 A 122 122 0 0 1 322 150" />
    <filter id="shadow" x="-20%" y="-20%" width="140%" height="140%">
      <feDropShadow dx="0" dy="2" stdDeviation="2" flood-color="#000000" flood-opacity="0.15"/>
    </filter>
  </defs>
  <g filter="url(#shadow)">
    <path d="M200 32 L330 74 L330 190 C330 276 280 334 200 372 C120 334 70 276 70 190 L70 74 Z" fill="#ba0c2f" stroke="#00205b" stroke-width="10" />
<path d="M200 68 L294 98 L294 188 C294 252 258 300 200 330 C142 300 106 252 106 188 L106 98 Z" fill="none" stroke="#ffffff" stroke-width="6" />
  </g>
  <text font-family="Arial, Helvetica, sans-serif" font-weight="700" font-size="18" fill="#ffffff" letter-spacing="1.2">
    <textPath href="#topArc" startOffset="50%" text-anchor="middle">NORWAY</textPath>
  </text>
  <text x="200" y="222" text-anchor="middle" font-family="Arial, Helvetica, sans-serif" font-weight="800" font-size="72" fill="#ffffff">NOR</text>
  <text x="200" y="280" text-anchor="middle" font-family="Arial, Helvetica, sans-serif" font-weight="700" font-size="18" fill="#ffffff">National Team</text>
  <rect x="122" y="102" width="156" height="10" rx="5" fill="#00205b" opacity="0.85" />
</svg>
