<svg viewBox="0 0 200 200" xmlns="http://www.w3.org/2000/svg">
  <defs>
    <path id="arc-fuerth" d="M 38 100 A 62 62 0 0 1 162 100"></path>
  </defs>

  <!-- Schild -->
  <path d="M100 12
           L168 38
           L168 104
           Q168 148 100 188
           Q32 148 32 104
           L32 38 Z" fill="#0b8f3a"></path>

  <!-- Innenform -->
  <path d="M100 26
           L154 46
           L154 100
           Q154 137 100 169
           Q46 137 46 100
           L46 46 Z" fill="#ffffff" opacity="0.10"></path>

  <!-- Gebogener Text -->
  <text font-size="11" fill="#ffffff" font-weight="700" letter-spacing="0.8">
    <textPath href="#arc-fuerth" startOffset="50%" text-anchor="middle">
      GREUTHER FÜRTH
    </textPath>
  </text>

  <!-- Kleeblatt-Kreis -->
  <circle cx="100" cy="105" r="34" fill="#ffffff" opacity="0.95"></circle>

  <!-- Stilisiertes Kleeblatt -->
  <circle cx="92" cy="96" r="8" fill="#0b8f3a"></circle>
  <circle cx="108" cy="96" r="8" fill="#0b8f3a"></circle>
  <circle cx="100" cy="110" r="8" fill="#0b8f3a"></circle>
  <rect x="98" y="116" width="4" height="12" rx="2" fill="#0b8f3a"></rect>

  <!-- Kürzel -->
  <text x="100" y="150" text-anchor="middle" font-size="20" font-weight="800" fill="#ffffff" font-family="Arial, Helvetica, sans-serif" letter-spacing="1">
    SGF
  </text>
</svg>